<svg xmlns="http://www.w3.org/2000/svg" viewBox="0 0 512 512" role="img" aria-label="AURION">
  <defs>
    <linearGradient id="bg" x1="80" y1="40" x2="432" y2="472" gradientUnits="userSpaceOnUse">
      <stop offset="0" stop-color="#7c3aed"/>
      <stop offset="0.52" stop-color="#0ea5e9"/>
      <stop offset="1" stop-color="#10b981"/>
    </linearGradient>
    <filter id="shadow" x="-20%" y="-20%" width="140%" height="140%">
      <feDropShadow dx="0" dy="24" stdDeviation="24" flood-color="#071827" flood-opacity=".28"/>
    </filter>
  </defs>
  <rect x="48" y="48" width="416" height="416" rx="108" fill="#071827"/>
  <rect x="82" y="82" width="348" height="348" rx="86" fill="url(#bg)" filter="url(#shadow)"/>
  <path d="M252.8 134.4c8.2-15.4 30.2-15.2 38.1.4l93.5 184.5c7.2 14.1-3.1 30.7-19 30.7h-49.1c-8 0-15.2-4.5-18.9-11.5l-11.2-21.8h-80.7l-11.1 21.8c-3.6 7-10.9 11.5-18.9 11.5h-49.2c-15.9 0-26.2-16.8-18.8-30.9l95.3-184.7Zm-22.3 134.2h31.2l-15.4-31.4-15.8 31.4Z" fill="#fff"/>
  <circle cx="356" cy="138" r="18" fill="#22c55e"/>
</svg>
